# xmcd
#
# Track frame offsets:
#	150
#	11387
#	29795
#	43990
#	61280
#	72557
#	88512
#	104642
#	119855
#	137190
#
# Disc length: 2026 seconds
# Revision: 4
# Processed by: cddbd v1.5.2PL0 Copyright (c) Steve Scherf et al.
# Submitted via: dBpowerAMP V12.0
#
DISCID=9c07e80a
DTITLE=Shenandoah - In the Vicinity of the Heart
DYEAR=1994
DGENRE=Country
TTITLE0=Darned If I Don’t (Danged If I Do)
TTITLE1=Somewhere in the Vicinity of the Heart
TTITLE2=Heaven Bound (I’m ready)
TTITLE3=Always Have, Always Will
TTITLE4=Cabin Fever
TTITLE5=I Wouldn’t Know
TTITLE6=Call It Love
TTITLE7=You Can Say That
TTITLE8=Every Fire
TTITLE9=She Could Care Less
EXTD=
EXTT0=
EXTT1=
EXTT2=
EXTT3=
EXTT4=
EXTT5=
EXTT6=
EXTT7=
EXTT8=
EXTT9=
PLAYORDER=
